solid Default
  facet normal 1.000000e+00 0.000000e+00 0.000000e+00
    outer loop
      vertex 6.999999e+00 -2.000104e+01 0.000000e+00
      vertex 6.999999e+00 2.000104e+01 1.776357e-15
      vertex 6.999999e+00 2.000104e+01 1.400000e+01
    endloop
  endfacet
  facet normal 1.000000e+00 0.000000e+00 0.000000e+00
    outer loop
      vertex 6.999999e+00 2.000104e+01 1.400000e+01
      vertex 6.999999e+00 -2.000104e+01 1.400000e+01
      vertex 6.999999e+00 -2.000104e+01 0.000000e+00
    endloop
  endfacet
  facet normal -1.000000e+00 0.000000e+00 0.000000e+00
    outer loop
      vertex -6.999999e+00 -2.000104e+01 1.400000e+01
      vertex -6.999999e+00 2.000104e+01 1.400000e+01
      vertex -6.999999e+00 2.000104e+01 1.776357e-15
    endloop
  endfacet
  facet normal -1.000000e+00 0.000000e+00 -0.000000e+00
    outer loop
      vertex -6.999999e+00 2.000104e+01 1.776357e-15
      vertex -6.999999e+00 -2.000104e+01 0.000000e+00
      vertex -6.999999e+00 -2.000104e+01 1.400000e+01
    endloop
  endfacet
  facet normal 0.000000e+00 6.123234e-17 -1.000000e+00
    outer loop
      vertex -2.222282e+00 1.632691e+01 1.776357e-15
      vertex -2.828428e+00 1.582946e+01 1.776357e-15
      vertex -6.999999e+00 2.000104e+01 1.776357e-15
    endloop
  endfacet
  facet normal 0.000000e+00 6.123234e-17 -1.000000e+00
    outer loop
      vertex -6.999999e+00 2.000104e+01 1.776357e-15
      vertex -1.530735e+00 1.669655e+01 1.776357e-15
      vertex -2.222282e+00 1.632691e+01 1.776357e-15
    endloop
  endfacet
  facet normal 0.000000e+00 6.123234e-17 -1.000000e+00
    outer loop
      vertex -6.999999e+00 2.000104e+01 1.776357e-15
      vertex 1.412714e-06 1.700103e+01 1.776357e-15
      vertex -7.803626e-01 1.692418e+01 1.776357e-15
    endloop
  endfacet
  facet normal 0.000000e+00 6.123234e-17 -1.000000e+00
    outer loop
      vertex -7.803626e-01 1.692418e+01 1.776357e-15
      vertex -1.530735e+00 1.669655e+01 1.776357e-15
      vertex -6.999999e+00 2.000104e+01 1.776357e-15
    endloop
  endfacet
  facet normal 0.000000e+00 6.123234e-17 -1.000000e+00
    outer loop
      vertex -6.999999e+00 2.000104e+01 1.776357e-15
      vertex 1.530735e+00 1.669655e+01 1.776357e-15
      vertex 7.803628e-01 1.692418e+01 1.776357e-15
    endloop
  endfacet
  facet normal 0.000000e+00 6.123234e-17 -1.000000e+00
    outer loop
      vertex 7.803628e-01 1.692418e+01 1.776357e-15
      vertex 1.412714e-06 1.700103e+01 1.776357e-15
      vertex -6.999999e+00 2.000104e+01 1.776357e-15
    endloop
  endfacet
  facet normal 0.000000e+00 6.123234e-17 -1.000000e+00
    outer loop
      vertex -3.325879e+00 1.522332e+01 1.776357e-15
      vertex -3.695519e+00 1.453177e+01 1.776357e-15
      vertex -6.999999e+00 2.000104e+01 1.776357e-15
    endloop
  endfacet
  facet normal 0.000000e+00 6.123234e-17 -1.000000e+00
    outer loop
      vertex -6.999999e+00 2.000104e+01 1.776357e-15
      vertex -2.828428e+00 1.582946e+01 1.776357e-15
      vertex -3.325879e+00 1.522332e+01 1.776357e-15
    endloop
  endfacet
  facet normal 0.000000e+00 6.123234e-17 -1.000000e+00
    outer loop
      vertex 6.999999e+00 2.000104e+01 1.776357e-15
      vertex 2.828429e+00 1.582946e+01 1.776357e-15
      vertex 2.222283e+00 1.632691e+01 1.776357e-15
    endloop
  endfacet
  facet normal 0.000000e+00 6.123234e-17 -1.000000e+00
    outer loop
      vertex 2.222283e+00 1.632691e+01 1.776357e-15
      vertex 1.530735e+00 1.669655e+01 1.776357e-15
      vertex 6.999999e+00 2.000104e+01 1.776357e-15
    endloop
  endfacet
  facet normal 0.000000e+00 6.123234e-17 -1.000000e+00
    outer loop
      vertex 6.999999e+00 2.000104e+01 1.776357e-15
      vertex 3.695519e+00 1.453177e+01 1.776357e-15
      vertex 3.325880e+00 1.522332e+01 1.776357e-15
    endloop
  endfacet
  facet normal 0.000000e+00 6.123234e-17 -1.000000e+00
    outer loop
      vertex 3.325880e+00 1.522332e+01 1.776357e-15
      vertex 2.828429e+00 1.582946e+01 1.776357e-15
      vertex 6.999999e+00 2.000104e+01 1.776357e-15
    endloop
  endfacet
  facet normal 0.000000e+00 6.123234e-17 -1.000000e+00
    outer loop
      vertex 6.999999e+00 2.000104e+01 1.776357e-15
      vertex 4.000000e+00 1.300103e+01 1.776357e-15
      vertex 3.923142e+00 1.378140e+01 1.776357e-15
    endloop
  endfacet
  facet normal 0.000000e+00 6.123234e-17 -1.000000e+00
    outer loop
      vertex 3.923142e+00 1.378140e+01 1.776357e-15
      vertex 3.695519e+00 1.453177e+01 1.776357e-15
      vertex 6.999999e+00 2.000104e+01 1.776357e-15
    endloop
  endfacet
  facet normal 0.000000e+00 6.123234e-17 -1.000000e+00
    outer loop
      vertex 6.999999e+00 2.000104e+01 1.776357e-15
      vertex 3.695518e+00 1.147030e+01 1.776357e-15
      vertex 3.923141e+00 1.222067e+01 1.776357e-15
    endloop
  endfacet
  facet normal 0.000000e+00 6.123234e-17 -1.000000e+00
    outer loop
      vertex 3.923141e+00 1.222067e+01 1.776357e-15
      vertex 4.000000e+00 1.300103e+01 1.776357e-15
      vertex 6.999999e+00 2.000104e+01 1.776357e-15
    endloop
  endfacet
  facet normal 0.000000e+00 6.123234e-17 -1.000000e+00
    outer loop
      vertex -6.999999e+00 2.000104e+01 1.776357e-15
      vertex 6.999999e+00 2.000104e+01 1.776357e-15
      vertex 1.530735e+00 1.669655e+01 1.776357e-15
    endloop
  endfacet
  facet normal 0.000000e+00 6.123234e-17 -1.000000e+00
    outer loop
      vertex 6.999999e+00 -2.000104e+01 0.000000e+00
      vertex 3.325878e+00 1.077875e+01 1.776357e-15
      vertex 3.695518e+00 1.147030e+01 1.776357e-15
    endloop
  endfacet
  facet normal 0.000000e+00 6.123234e-17 -1.000000e+00
    outer loop
      vertex 3.695518e+00 1.147030e+01 1.776357e-15
      vertex 6.999999e+00 2.000104e+01 1.776357e-15
      vertex 6.999999e+00 -2.000104e+01 0.000000e+00
    endloop
  endfacet
  facet normal 0.000000e+00 6.123234e-17 -1.000000e+00
    outer loop
      vertex 6.999999e+00 -2.000104e+01 0.000000e+00
      vertex 2.222281e+00 9.675158e+00 1.776357e-15
      vertex 2.828427e+00 1.017261e+01 1.776357e-15
    endloop
  endfacet
  facet normal 0.000000e+00 6.123234e-17 -1.000000e+00
    outer loop
      vertex 2.828427e+00 1.017261e+01 1.776357e-15
      vertex 3.325878e+00 1.077875e+01 1.776357e-15
      vertex 6.999999e+00 -2.000104e+01 0.000000e+00
    endloop
  endfacet
  facet normal 0.000000e+00 6.123234e-17 -1.000000e+00
    outer loop
      vertex 6.999999e+00 -2.000104e+01 0.000000e+00
      vertex 7.803610e-01 9.077894e+00 1.776357e-15
      vertex 1.530733e+00 9.305517e+00 1.776357e-15
    endloop
  endfacet
  facet normal 0.000000e+00 6.123234e-17 -1.000000e+00
    outer loop
      vertex 1.530733e+00 9.305517e+00 1.776357e-15
      vertex 2.222281e+00 9.675158e+00 1.776357e-15
      vertex 6.999999e+00 -2.000104e+01 0.000000e+00
    endloop
  endfacet
  facet normal 0.000000e+00 6.123234e-17 -1.000000e+00
    outer loop
      vertex 6.999999e+00 -2.000104e+01 0.000000e+00
      vertex -7.803614e-01 9.077894e+00 1.776357e-15
      vertex -1.983808e-07 9.001037e+00 1.776357e-15
    endloop
  endfacet
  facet normal 0.000000e+00 6.123234e-17 -1.000000e+00
    outer loop
      vertex -1.983808e-07 9.001037e+00 1.776357e-15
      vertex 7.803610e-01 9.077894e+00 1.776357e-15
      vertex 6.999999e+00 -2.000104e+01 0.000000e+00
    endloop
  endfacet
  facet normal 0.000000e+00 6.123234e-17 -1.000000e+00
    outer loop
      vertex 6.999999e+00 -2.000104e+01 0.000000e+00
      vertex -2.222281e+00 9.675158e+00 1.776357e-15
      vertex -1.530734e+00 9.305517e+00 1.776357e-15
    endloop
  endfacet
  facet normal 0.000000e+00 6.123234e-17 -1.000000e+00
    outer loop
      vertex -1.530734e+00 9.305517e+00 1.776357e-15
      vertex -7.803614e-01 9.077894e+00 1.776357e-15
      vertex 6.999999e+00 -2.000104e+01 0.000000e+00
    endloop
  endfacet
  facet normal 0.000000e+00 6.123234e-17 -1.000000e+00
    outer loop
      vertex 6.999999e+00 -2.000104e+01 0.000000e+00
      vertex -3.325878e+00 1.077876e+01 1.776357e-15
      vertex -2.828427e+00 1.017261e+01 1.776357e-15
    endloop
  endfacet
  facet normal 0.000000e+00 6.123234e-17 -1.000000e+00
    outer loop
      vertex -2.828427e+00 1.017261e+01 1.776357e-15
      vertex -2.222281e+00 9.675158e+00 1.776357e-15
      vertex 6.999999e+00 -2.000104e+01 0.000000e+00
    endloop
  endfacet
  facet normal 0.000000e+00 6.123234e-17 -1.000000e+00
    outer loop
      vertex 6.999999e+00 -2.000104e+01 0.000000e+00
      vertex -6.999999e+00 2.000104e+01 1.776357e-15
      vertex -3.695518e+00 1.147030e+01 1.776357e-15
    endloop
  endfacet
  facet normal 0.000000e+00 6.123234e-17 -1.000000e+00
    outer loop
      vertex -3.695518e+00 1.147030e+01 1.776357e-15
      vertex -3.325878e+00 1.077876e+01 1.776357e-15
      vertex 6.999999e+00 -2.000104e+01 0.000000e+00
    endloop
  endfacet
  facet normal 0.000000e+00 6.123234e-17 -1.000000e+00
    outer loop
      vertex -6.999999e+00 2.000104e+01 1.776357e-15
      vertex -4.000000e+00 1.300103e+01 1.776357e-15
      vertex -3.923141e+00 1.222067e+01 1.776357e-15
    endloop
  endfacet
  facet normal 0.000000e+00 6.123234e-17 -1.000000e+00
    outer loop
      vertex -3.923141e+00 1.222067e+01 1.776357e-15
      vertex -3.695518e+00 1.147030e+01 1.776357e-15
      vertex -6.999999e+00 2.000104e+01 1.776357e-15
    endloop
  endfacet
  facet normal 0.000000e+00 6.123234e-17 -1.000000e+00
    outer loop
      vertex -3.923141e+00 1.378140e+01 1.776357e-15
      vertex -4.000000e+00 1.300103e+01 1.776357e-15
      vertex -6.999999e+00 2.000104e+01 1.776357e-15
    endloop
  endfacet
  facet normal 0.000000e+00 6.123234e-17 -1.000000e+00
    outer loop
      vertex -6.999999e+00 2.000104e+01 1.776357e-15
      vertex -3.695519e+00 1.453177e+01 1.776357e-15
      vertex -3.923141e+00 1.378140e+01 1.776357e-15
    endloop
  endfacet
  facet normal 0.000000e+00 6.123234e-17 -1.000000e+00
    outer loop
      vertex 6.999999e+00 -2.000104e+01 0.000000e+00
      vertex -6.999999e+00 -2.000104e+01 0.000000e+00
      vertex -6.999999e+00 2.000104e+01 1.776357e-15
    endloop
  endfacet
  facet normal 0.000000e+00 1.000000e+00 6.123234e-17
    outer loop
      vertex -6.999999e+00 2.000104e+01 1.400000e+01
      vertex 6.999999e+00 2.000104e+01 1.400000e+01
      vertex 6.999999e+00 2.000104e+01 1.776357e-15
    endloop
  endfacet
  facet normal 0.000000e+00 1.000000e+00 6.123234e-17
    outer loop
      vertex 6.999999e+00 2.000104e+01 1.776357e-15
      vertex -6.999999e+00 2.000104e+01 1.776357e-15
      vertex -6.999999e+00 2.000104e+01 1.400000e+01
    endloop
  endfacet
  facet normal 0.000000e+00 -6.123234e-17 1.000000e+00
    outer loop
      vertex -2.828424e+00 1.017261e+01 1.400000e+01
      vertex -3.325876e+00 1.077875e+01 1.400000e+01
      vertex -6.999999e+00 -2.000104e+01 1.400000e+01
    endloop
  endfacet
  facet normal 0.000000e+00 -6.123234e-17 1.000000e+00
    outer loop
      vertex -6.999999e+00 -2.000104e+01 1.400000e+01
      vertex -2.222278e+00 9.675157e+00 1.400000e+01
      vertex -2.828424e+00 1.017261e+01 1.400000e+01
    endloop
  endfacet
  facet normal 0.000000e+00 -6.123234e-17 1.000000e+00
    outer loop
      vertex -6.999999e+00 -2.000104e+01 1.400000e+01
      vertex -7.803596e-01 9.077895e+00 1.400000e+01
      vertex -1.530731e+00 9.305518e+00 1.400000e+01
    endloop
  endfacet
  facet normal 0.000000e+00 -6.123234e-17 1.000000e+00
    outer loop
      vertex -1.530731e+00 9.305518e+00 1.400000e+01
      vertex -2.222278e+00 9.675157e+00 1.400000e+01
      vertex -6.999999e+00 -2.000104e+01 1.400000e+01
    endloop
  endfacet
  facet normal 0.000000e+00 -6.123234e-17 1.000000e+00
    outer loop
      vertex -6.999999e+00 -2.000104e+01 1.400000e+01
      vertex 7.803619e-01 9.077895e+00 1.400000e+01
      vertex 1.207967e-06 9.001037e+00 1.400000e+01
    endloop
  endfacet
  facet normal 0.000000e+00 -6.123234e-17 1.000000e+00
    outer loop
      vertex 1.207967e-06 9.001037e+00 1.400000e+01
      vertex -7.803596e-01 9.077895e+00 1.400000e+01
      vertex -6.999999e+00 -2.000104e+01 1.400000e+01
    endloop
  endfacet
  facet normal 0.000000e+00 -6.123234e-17 1.000000e+00
    outer loop
      vertex -6.999999e+00 -2.000104e+01 1.400000e+01
      vertex 2.222281e+00 9.675159e+00 1.400000e+01
      vertex 1.530734e+00 9.305518e+00 1.400000e+01
    endloop
  endfacet
  facet normal 0.000000e+00 -6.123234e-17 1.000000e+00
    outer loop
      vertex 1.530734e+00 9.305518e+00 1.400000e+01
      vertex 7.803619e-01 9.077895e+00 1.400000e+01
      vertex -6.999999e+00 -2.000104e+01 1.400000e+01
    endloop
  endfacet
  facet normal 0.000000e+00 -6.123234e-17 1.000000e+00
    outer loop
      vertex -6.999999e+00 -2.000104e+01 1.400000e+01
      vertex 3.325877e+00 1.077875e+01 1.400000e+01
      vertex 2.828426e+00 1.017261e+01 1.400000e+01
    endloop
  endfacet
  facet normal 0.000000e+00 -6.123234e-17 1.000000e+00
    outer loop
      vertex 2.828426e+00 1.017261e+01 1.400000e+01
      vertex 2.222281e+00 9.675159e+00 1.400000e+01
      vertex -6.999999e+00 -2.000104e+01 1.400000e+01
    endloop
  endfacet
  facet normal 0.000000e+00 -6.123234e-17 1.000000e+00
    outer loop
      vertex -6.999999e+00 -2.000104e+01 1.400000e+01
      vertex 6.999999e+00 2.000104e+01 1.400000e+01
      vertex 3.695517e+00 1.147030e+01 1.400000e+01
    endloop
  endfacet
  facet normal 0.000000e+00 -6.123234e-17 1.000000e+00
    outer loop
      vertex 3.695517e+00 1.147030e+01 1.400000e+01
      vertex 3.325877e+00 1.077875e+01 1.400000e+01
      vertex -6.999999e+00 -2.000104e+01 1.400000e+01
    endloop
  endfacet
  facet normal 0.000000e+00 -6.123234e-17 1.000000e+00
    outer loop
      vertex 6.999999e+00 2.000104e+01 1.400000e+01
      vertex 4.000000e+00 1.300103e+01 1.400000e+01
      vertex 3.923141e+00 1.222067e+01 1.400000e+01
    endloop
  endfacet
  facet normal 0.000000e+00 -6.123234e-17 1.000000e+00
    outer loop
      vertex 3.923141e+00 1.222067e+01 1.400000e+01
      vertex 3.695517e+00 1.147030e+01 1.400000e+01
      vertex 6.999999e+00 2.000104e+01 1.400000e+01
    endloop
  endfacet
  facet normal 0.000000e+00 -6.123234e-17 1.000000e+00
    outer loop
      vertex 6.999999e+00 2.000104e+01 1.400000e+01
      vertex 3.695520e+00 1.453177e+01 1.400000e+01
      vertex 3.923142e+00 1.378139e+01 1.400000e+01
    endloop
  endfacet
  facet normal 0.000000e+00 -6.123234e-17 1.000000e+00
    outer loop
      vertex 3.923142e+00 1.378139e+01 1.400000e+01
      vertex 4.000000e+00 1.300103e+01 1.400000e+01
      vertex 6.999999e+00 2.000104e+01 1.400000e+01
    endloop
  endfacet
  facet normal 0.000000e+00 -6.123234e-17 1.000000e+00
    outer loop
      vertex 6.999999e+00 2.000104e+01 1.400000e+01
      vertex 2.828430e+00 1.582946e+01 1.400000e+01
      vertex 3.325881e+00 1.522331e+01 1.400000e+01
    endloop
  endfacet
  facet normal 0.000000e+00 -6.123234e-17 1.000000e+00
    outer loop
      vertex 3.325881e+00 1.522331e+01 1.400000e+01
      vertex 3.695520e+00 1.453177e+01 1.400000e+01
      vertex 6.999999e+00 2.000104e+01 1.400000e+01
    endloop
  endfacet
  facet normal 0.000000e+00 -6.123234e-17 1.000000e+00
    outer loop
      vertex 6.999999e+00 2.000104e+01 1.400000e+01
      vertex 1.530737e+00 1.669655e+01 1.400000e+01
      vertex 2.222284e+00 1.632691e+01 1.400000e+01
    endloop
  endfacet
  facet normal 0.000000e+00 -6.123234e-17 1.000000e+00
    outer loop
      vertex 2.222284e+00 1.632691e+01 1.400000e+01
      vertex 2.828430e+00 1.582946e+01 1.400000e+01
      vertex 6.999999e+00 2.000104e+01 1.400000e+01
    endloop
  endfacet
  facet normal 0.000000e+00 -6.123234e-17 1.000000e+00
    outer loop
      vertex 6.999999e+00 2.000104e+01 1.400000e+01
      vertex 3.210715e-06 1.700104e+01 1.400000e+01
      vertex 7.803647e-01 1.692418e+01 1.400000e+01
    endloop
  endfacet
  facet normal 0.000000e+00 -6.123234e-17 1.000000e+00
    outer loop
      vertex 7.803647e-01 1.692418e+01 1.400000e+01
      vertex 1.530737e+00 1.669655e+01 1.400000e+01
      vertex 6.999999e+00 2.000104e+01 1.400000e+01
    endloop
  endfacet
  facet normal 0.000000e+00 -6.123234e-17 1.000000e+00
    outer loop
      vertex 6.999999e+00 2.000104e+01 1.400000e+01
      vertex -1.530743e+00 1.669655e+01 1.400000e+01
      vertex -7.803718e-01 1.692418e+01 1.400000e+01
    endloop
  endfacet
  facet normal 0.000000e+00 -6.123234e-17 1.000000e+00
    outer loop
      vertex -7.803718e-01 1.692418e+01 1.400000e+01
      vertex 3.210715e-06 1.700104e+01 1.400000e+01
      vertex 6.999999e+00 2.000104e+01 1.400000e+01
    endloop
  endfacet
  facet normal 0.000000e+00 -6.123234e-17 1.000000e+00
    outer loop
      vertex -3.695516e+00 1.147030e+01 1.400000e+01
      vertex -3.923140e+00 1.222067e+01 1.400000e+01
      vertex -6.999999e+00 -2.000104e+01 1.400000e+01
    endloop
  endfacet
  facet normal 0.000000e+00 -6.123234e-17 1.000000e+00
    outer loop
      vertex -6.999999e+00 -2.000104e+01 1.400000e+01
      vertex -3.325876e+00 1.077875e+01 1.400000e+01
      vertex -3.695516e+00 1.147030e+01 1.400000e+01
    endloop
  endfacet
  facet normal 0.000000e+00 -6.123234e-17 1.000000e+00
    outer loop
      vertex -6.999999e+00 2.000104e+01 1.400000e+01
      vertex -2.828434e+00 1.582946e+01 1.400000e+01
      vertex -2.222289e+00 1.632691e+01 1.400000e+01
    endloop
  endfacet
  facet normal 0.000000e+00 -6.123234e-17 1.000000e+00
    outer loop
      vertex -2.222289e+00 1.632691e+01 1.400000e+01
      vertex -1.530743e+00 1.669655e+01 1.400000e+01
      vertex -6.999999e+00 2.000104e+01 1.400000e+01
    endloop
  endfacet
  facet normal 0.000000e+00 -6.123234e-17 1.000000e+00
    outer loop
      vertex -6.999999e+00 2.000104e+01 1.400000e+01
      vertex -3.695521e+00 1.453176e+01 1.400000e+01
      vertex -3.325883e+00 1.522331e+01 1.400000e+01
    endloop
  endfacet
  facet normal 0.000000e+00 -6.123234e-17 1.000000e+00
    outer loop
      vertex -3.325883e+00 1.522331e+01 1.400000e+01
      vertex -2.828434e+00 1.582946e+01 1.400000e+01
      vertex -6.999999e+00 2.000104e+01 1.400000e+01
    endloop
  endfacet
  facet normal 0.000000e+00 -6.123234e-17 1.000000e+00
    outer loop
      vertex 6.999999e+00 2.000104e+01 1.400000e+01
      vertex -6.999999e+00 2.000104e+01 1.400000e+01
      vertex -1.530743e+00 1.669655e+01 1.400000e+01
    endloop
  endfacet
  facet normal 0.000000e+00 -6.123234e-17 1.000000e+00
    outer loop
      vertex -6.999999e+00 2.000104e+01 1.400000e+01
      vertex -6.999999e+00 -2.000104e+01 1.400000e+01
      vertex -3.923140e+00 1.222067e+01 1.400000e+01
    endloop
  endfacet
  facet normal 0.000000e+00 -6.123234e-17 1.000000e+00
    outer loop
      vertex -3.923140e+00 1.222067e+01 1.400000e+01
      vertex -4.000000e+00 1.300103e+01 1.400000e+01
      vertex -6.999999e+00 2.000104e+01 1.400000e+01
    endloop
  endfacet
  facet normal 0.000000e+00 -6.123234e-17 1.000000e+00
    outer loop
      vertex -6.999999e+00 2.000104e+01 1.400000e+01
      vertex -4.000000e+00 1.300103e+01 1.400000e+01
      vertex -3.923143e+00 1.378139e+01 1.400000e+01
    endloop
  endfacet
  facet normal 0.000000e+00 -6.123234e-17 1.000000e+00
    outer loop
      vertex -3.923143e+00 1.378139e+01 1.400000e+01
      vertex -3.695521e+00 1.453176e+01 1.400000e+01
      vertex -6.999999e+00 2.000104e+01 1.400000e+01
    endloop
  endfacet
  facet normal -9.801426e-02 -9.951850e-01 1.489366e-07
    outer loop
      vertex 7.803628e-01 1.692418e+01 1.776357e-15
      vertex 7.803647e-01 1.692418e+01 1.400000e+01
      vertex 3.210715e-06 1.700104e+01 1.400000e+01
    endloop
  endfacet
  facet normal -9.801427e-02 -9.951850e-01 1.481710e-07
    outer loop
      vertex 3.210715e-06 1.700104e+01 1.400000e+01
      vertex 1.412714e-06 1.700103e+01 1.776357e-15
      vertex 7.803628e-01 1.692418e+01 1.776357e-15
    endloop
  endfacet
  facet normal -2.902869e-01 -9.569396e-01 3.954845e-08
    outer loop
      vertex 1.530735e+00 1.669655e+01 1.776357e-15
      vertex 1.530737e+00 1.669655e+01 1.400000e+01
      vertex 7.803647e-01 1.692418e+01 1.400000e+01
    endloop
  endfacet
  facet normal -2.902847e-01 -9.569404e-01 1.699209e-07
    outer loop
      vertex 7.803647e-01 1.692418e+01 1.400000e+01
      vertex 7.803628e-01 1.692418e+01 1.776357e-15
      vertex 1.530735e+00 1.669655e+01 1.776357e-15
    endloop
  endfacet
  facet normal -4.713974e-01 -8.819209e-01 5.619496e-08
    outer loop
      vertex 2.222283e+00 1.632691e+01 1.776357e-15
      vertex 2.222284e+00 1.632691e+01 1.400000e+01
      vertex 1.530737e+00 1.669655e+01 1.400000e+01
    endloop
  endfacet
  facet normal -4.713973e-01 -8.819209e-01 6.422278e-08
    outer loop
      vertex 1.530737e+00 1.669655e+01 1.400000e+01
      vertex 1.530735e+00 1.669655e+01 1.776357e-15
      vertex 2.222283e+00 1.632691e+01 1.776357e-15
    endloop
  endfacet
  facet normal -6.343946e-01 -7.730094e-01 -2.968845e-08
    outer loop
      vertex 2.828429e+00 1.582946e+01 1.776357e-15
      vertex 2.828430e+00 1.582946e+01 1.400000e+01
      vertex 2.222284e+00 1.632691e+01 1.400000e+01
    endloop
  endfacet
  facet normal -6.343931e-01 -7.730106e-01 7.562556e-08
    outer loop
      vertex 2.222284e+00 1.632691e+01 1.400000e+01
      vertex 2.222283e+00 1.632691e+01 1.776357e-15
      vertex 2.828429e+00 1.582946e+01 1.776357e-15
    endloop
  endfacet
  facet normal -7.730111e-01 -6.343925e-01 3.577124e-08
    outer loop
      vertex 3.325880e+00 1.522332e+01 1.776357e-15
      vertex 3.325881e+00 1.522331e+01 1.400000e+01
      vertex 2.828430e+00 1.582946e+01 1.400000e+01
    endloop
  endfacet
  facet normal -7.730114e-01 -6.343921e-01 5.721078e-09
    outer loop
      vertex 2.828430e+00 1.582946e+01 1.400000e+01
      vertex 2.828429e+00 1.582946e+01 1.776357e-15
      vertex 3.325880e+00 1.522332e+01 1.776357e-15
    endloop
  endfacet
  facet normal -8.819217e-01 -4.713959e-01 1.294582e-08
    outer loop
      vertex 3.695519e+00 1.453177e+01 1.776357e-15
      vertex 3.695520e+00 1.453177e+01 1.400000e+01
      vertex 3.325881e+00 1.522331e+01 1.400000e+01
    endloop
  endfacet
  facet normal -8.819214e-01 -4.713966e-01 5.800285e-08
    outer loop
      vertex 3.325881e+00 1.522331e+01 1.400000e+01
      vertex 3.325880e+00 1.522332e+01 1.776357e-15
      vertex 3.695519e+00 1.453177e+01 1.776357e-15
    endloop
  endfacet
  facet normal -9.569405e-01 -2.902839e-01 -6.954850e-09
    outer loop
      vertex 3.923142e+00 1.378140e+01 1.776357e-15
      vertex 3.923142e+00 1.378139e+01 1.400000e+01
      vertex 3.695520e+00 1.453177e+01 1.400000e+01
    endloop
  endfacet
  facet normal -9.569404e-01 -2.902846e-01 2.911573e-08
    outer loop
      vertex 3.695520e+00 1.453177e+01 1.400000e+01
      vertex 3.695519e+00 1.453177e+01 1.776357e-15
      vertex 3.923142e+00 1.378140e+01 1.776357e-15
    endloop
  endfacet
  facet normal -9.951849e-01 -9.801568e-02 -1.335358e-08
    outer loop
      vertex 4.000000e+00 1.300103e+01 1.776357e-15
      vertex 4.000000e+00 1.300103e+01 1.400000e+01
      vertex 3.923142e+00 1.378139e+01 1.400000e+01
    endloop
  endfacet
  facet normal -9.951848e-01 -9.801628e-02 2.054214e-08
    outer loop
      vertex 3.923142e+00 1.378139e+01 1.400000e+01
      vertex 3.923142e+00 1.378140e+01 1.776357e-15
      vertex 4.000000e+00 1.300103e+01 1.776357e-15
    endloop
  endfacet
  facet normal -9.951846e-01 9.801845e-02 -2.721881e-08
    outer loop
      vertex 3.923141e+00 1.222067e+01 1.776357e-15
      vertex 3.923141e+00 1.222067e+01 1.400000e+01
      vertex 4.000000e+00 1.300103e+01 1.400000e+01
    endloop
  endfacet
  facet normal -9.951847e-01 9.801772e-02 1.335386e-08
    outer loop
      vertex 4.000000e+00 1.300103e+01 1.400000e+01
      vertex 4.000000e+00 1.300103e+01 1.776357e-15
      vertex 3.923141e+00 1.222067e+01 1.776357e-15
    endloop
  endfacet
  facet normal -9.569403e-01 2.902848e-01 -2.911571e-08
    outer loop
      vertex 3.695518e+00 1.147030e+01 1.776357e-15
      vertex 3.695517e+00 1.147030e+01 1.400000e+01
      vertex 3.923141e+00 1.222067e+01 1.400000e+01
    endloop
  endfacet
  facet normal -9.569404e-01 2.902845e-01 -1.281913e-08
    outer loop
      vertex 3.923141e+00 1.222067e+01 1.400000e+01
      vertex 3.923141e+00 1.222067e+01 1.776357e-15
      vertex 3.695518e+00 1.147030e+01 1.776357e-15
    endloop
  endfacet
  facet normal -8.819207e-01 4.713978e-01 -4.505706e-08
    outer loop
      vertex 3.325878e+00 1.077875e+01 1.776357e-15
      vertex 3.325877e+00 1.077875e+01 1.400000e+01
      vertex 3.695517e+00 1.147030e+01 1.400000e+01
    endloop
  endfacet
  facet normal -8.819209e-01 4.713973e-01 -1.294568e-08
    outer loop
      vertex 3.695517e+00 1.147030e+01 1.400000e+01
      vertex 3.695518e+00 1.147030e+01 1.776357e-15
      vertex 3.325878e+00 1.077875e+01 1.776357e-15
    endloop
  endfacet
  facet normal -7.730107e-01 6.343931e-01 -6.954320e-08
    outer loop
      vertex 3.325878e+00 1.077875e+01 1.776357e-15
      vertex 2.828427e+00 1.017261e+01 1.776357e-15
      vertex 2.828426e+00 1.017261e+01 1.400000e+01
    endloop
  endfacet
  facet normal -7.730103e-01 6.343935e-01 -3.949286e-08
    outer loop
      vertex 2.828426e+00 1.017261e+01 1.400000e+01
      vertex 3.325877e+00 1.077875e+01 1.400000e+01
      vertex 3.325878e+00 1.077875e+01 1.776357e-15
    endloop
  endfacet
  facet normal -6.343925e-01 7.730110e-01 -6.346084e-08
    outer loop
      vertex 2.222281e+00 9.675158e+00 1.776357e-15
      vertex 2.222281e+00 9.675159e+00 1.400000e+01
      vertex 2.828426e+00 1.017261e+01 1.400000e+01
    endloop
  endfacet
  facet normal -6.343924e-01 7.730112e-01 -7.426449e-08
    outer loop
      vertex 2.828426e+00 1.017261e+01 1.400000e+01
      vertex 2.828427e+00 1.017261e+01 1.776357e-15
      vertex 2.222281e+00 9.675158e+00 1.776357e-15
    endloop
  endfacet
  facet normal -4.713974e-01 8.819209e-01 -4.803433e-08
    outer loop
      vertex 2.222281e+00 9.675158e+00 1.776357e-15
      vertex 1.530733e+00 9.305517e+00 1.776357e-15
      vertex 1.530734e+00 9.305518e+00 1.400000e+01
    endloop
  endfacet
  facet normal -4.713977e-01 8.819208e-01 -6.810394e-08
    outer loop
      vertex 1.530734e+00 9.305518e+00 1.400000e+01
      vertex 2.222281e+00 9.675159e+00 1.400000e+01
      vertex 2.222281e+00 9.675158e+00 1.776357e-15
    endloop
  endfacet
  facet normal -2.902847e-01 9.569404e-01 -4.664820e-08
    outer loop
      vertex 1.530733e+00 9.305517e+00 1.776357e-15
      vertex 7.803610e-01 9.077894e+00 1.776357e-15
      vertex 7.803619e-01 9.077895e+00 1.400000e+01
    endloop
  endfacet
  facet normal -2.902848e-01 9.569403e-01 -5.777111e-08
    outer loop
      vertex 7.803619e-01 9.077895e+00 1.400000e+01
      vertex 1.530734e+00 9.305518e+00 1.400000e+01
      vertex 1.530733e+00 9.305517e+00 1.776357e-15
    endloop
  endfacet
  facet normal -9.801549e-02 9.951849e-01 9.845993e-09
    outer loop
      vertex 7.803610e-01 9.077894e+00 1.776357e-15
      vertex -1.983808e-07 9.001037e+00 1.776357e-15
      vertex 1.207967e-06 9.001037e+00 1.400000e+01
    endloop
  endfacet
  facet normal -9.801676e-02 9.951848e-01 -6.153203e-08
    outer loop
      vertex 1.207967e-06 9.001037e+00 1.400000e+01
      vertex 7.803619e-01 9.077895e+00 1.400000e+01
      vertex 7.803610e-01 9.077894e+00 1.776357e-15
    endloop
  endfacet
  facet normal 9.801549e-02 9.951849e-01 -8.072785e-08
    outer loop
      vertex -1.983808e-07 9.001037e+00 1.776357e-15
      vertex -7.803614e-01 9.077894e+00 1.776357e-15
      vertex -7.803596e-01 9.077895e+00 1.400000e+01
    endloop
  endfacet
  facet normal 9.801675e-02 9.951848e-01 -9.846120e-09
    outer loop
      vertex -7.803596e-01 9.077895e+00 1.400000e+01
      vertex 1.207967e-06 9.001037e+00 1.400000e+01
      vertex -1.983808e-07 9.001037e+00 1.776357e-15
    endloop
  endfacet
  facet normal 2.902847e-01 9.569404e-01 -1.146216e-07
    outer loop
      vertex -7.803614e-01 9.077894e+00 1.776357e-15
      vertex -1.530734e+00 9.305517e+00 1.776357e-15
      vertex -1.530731e+00 9.305518e+00 1.400000e+01
    endloop
  endfacet
  facet normal 2.902849e-01 9.569403e-01 -1.034987e-07
    outer loop
      vertex -1.530731e+00 9.305518e+00 1.400000e+01
      vertex -7.803596e-01 9.077895e+00 1.400000e+01
      vertex -7.803614e-01 9.077894e+00 1.776357e-15
    endloop
  endfacet
  facet normal 4.713974e-01 8.819209e-01 -2.823026e-08
    outer loop
      vertex -1.530734e+00 9.305517e+00 1.776357e-15
      vertex -2.222281e+00 9.675158e+00 1.776357e-15
      vertex -2.222278e+00 9.675157e+00 1.400000e+01
    endloop
  endfacet
  facet normal 4.713957e-01 8.819218e-01 -1.403544e-07
    outer loop
      vertex -2.222278e+00 9.675157e+00 1.400000e+01
      vertex -1.530731e+00 9.305518e+00 1.400000e+01
      vertex -1.530734e+00 9.305517e+00 1.776357e-15
    endloop
  endfacet
  facet normal 6.343930e-01 7.730107e-01 -1.352578e-08
    outer loop
      vertex -2.222281e+00 9.675158e+00 1.776357e-15
      vertex -2.828427e+00 1.017261e+01 1.776357e-15
      vertex -2.828424e+00 1.017261e+01 1.400000e+01
    endloop
  endfacet
  facet normal 6.343923e-01 7.730113e-01 -6.618278e-08
    outer loop
      vertex -2.828424e+00 1.017261e+01 1.400000e+01
      vertex -2.222278e+00 9.675157e+00 1.400000e+01
      vertex -2.222281e+00 9.675158e+00 1.776357e-15
    endloop
  endfacet
  facet normal 7.730108e-01 6.343929e-01 -1.999195e-09
    outer loop
      vertex -2.828427e+00 1.017261e+01 1.776357e-15
      vertex -3.325878e+00 1.077876e+01 1.776357e-15
      vertex -3.325876e+00 1.077875e+01 1.400000e+01
    endloop
  endfacet
  facet normal 7.730101e-01 6.343936e-01 -5.837786e-08
    outer loop
      vertex -3.325876e+00 1.077875e+01 1.400000e+01
      vertex -2.828424e+00 1.017261e+01 1.400000e+01
      vertex -2.828427e+00 1.017261e+01 1.776357e-15
    endloop
  endfacet
  facet normal 8.819207e-01 4.713978e-01 -2.381787e-08
    outer loop
      vertex -3.325878e+00 1.077876e+01 1.776357e-15
      vertex -3.695518e+00 1.147030e+01 1.776357e-15
      vertex -3.695516e+00 1.147030e+01 1.400000e+01
    endloop
  endfacet
  facet normal 8.819204e-01 4.713983e-01 -5.385577e-08
    outer loop
      vertex -3.695516e+00 1.147030e+01 1.400000e+01
      vertex -3.325876e+00 1.077875e+01 1.400000e+01
      vertex -3.325878e+00 1.077876e+01 1.776357e-15
    endloop
  endfacet
  facet normal 9.569406e-01 2.902839e-01 3.368370e-08
    outer loop
      vertex -3.695518e+00 1.147030e+01 1.776357e-15
      vertex -3.923141e+00 1.222067e+01 1.776357e-15
      vertex -3.923140e+00 1.222067e+01 1.400000e+01
    endloop
  endfacet
  facet normal 9.569400e-01 2.902856e-01 -7.105030e-08
    outer loop
      vertex -3.923140e+00 1.222067e+01 1.400000e+01
      vertex -3.695516e+00 1.147030e+01 1.400000e+01
      vertex -3.695518e+00 1.147030e+01 1.776357e-15
    endloop
  endfacet
  facet normal 9.951847e-01 9.801772e-02 3.338464e-08
    outer loop
      vertex -3.923141e+00 1.222067e+01 1.776357e-15
      vertex -4.000000e+00 1.300103e+01 1.776357e-15
      vertex -4.000000e+00 1.300103e+01 1.400000e+01
    endloop
  endfacet
  facet normal 9.951845e-01 9.801893e-02 -3.440652e-08
    outer loop
      vertex -4.000000e+00 1.300103e+01 1.400000e+01
      vertex -3.923140e+00 1.222067e+01 1.400000e+01
      vertex -3.923141e+00 1.222067e+01 1.776357e-15
    endloop
  endfacet
  facet normal 9.951848e-01 -9.801689e-02 6.162615e-08
    outer loop
      vertex -4.000000e+00 1.300103e+01 1.776357e-15
      vertex -3.923141e+00 1.378140e+01 1.776357e-15
      vertex -3.923143e+00 1.378139e+01 1.400000e+01
    endloop
  endfacet
  facet normal 9.951849e-01 -9.801520e-02 -3.338378e-08
    outer loop
      vertex -3.923143e+00 1.378139e+01 1.400000e+01
      vertex -4.000000e+00 1.300103e+01 1.400000e+01
      vertex -4.000000e+00 1.300103e+01 1.776357e-15
    endloop
  endfacet
  facet normal 9.569404e-01 -2.902846e-01 6.061818e-08
    outer loop
      vertex -3.923141e+00 1.378140e+01 1.776357e-15
      vertex -3.695519e+00 1.453177e+01 1.776357e-15
      vertex -3.695521e+00 1.453176e+01 1.400000e+01
    endloop
  endfacet
  facet normal 9.569408e-01 -2.902832e-01 -2.086421e-08
    outer loop
      vertex -3.695521e+00 1.453176e+01 1.400000e+01
      vertex -3.923143e+00 1.378139e+01 1.400000e+01
      vertex -3.923141e+00 1.378140e+01 1.776357e-15
    endloop
  endfacet
  facet normal 8.819216e-01 -4.713961e-01 6.265575e-08
    outer loop
      vertex -3.695519e+00 1.453177e+01 1.776357e-15
      vertex -3.325879e+00 1.522332e+01 1.776357e-15
      vertex -3.325883e+00 1.522331e+01 1.400000e+01
    endloop
  endfacet
  facet normal 8.819224e-01 -4.713947e-01 -2.745775e-08
    outer loop
      vertex -3.325883e+00 1.522331e+01 1.400000e+01
      vertex -3.695521e+00 1.453176e+01 1.400000e+01
      vertex -3.695519e+00 1.453177e+01 1.776357e-15
    endloop
  endfacet
  facet normal 7.730104e-01 -6.343933e-01 5.665527e-08
    outer loop
      vertex -3.325879e+00 1.522332e+01 1.776357e-15
      vertex -2.828428e+00 1.582946e+01 1.776357e-15
      vertex -2.828434e+00 1.582946e+01 1.400000e+01
    endloop
  endfacet
  facet normal 7.730115e-01 -6.343920e-01 -3.549394e-08
    outer loop
      vertex -2.828434e+00 1.582946e+01 1.400000e+01
      vertex -3.325883e+00 1.522331e+01 1.400000e+01
      vertex -3.325879e+00 1.522332e+01 1.776357e-15
    endloop
  endfacet
  facet normal 6.343931e-01 -7.730106e-01 1.026772e-07
    outer loop
      vertex -2.828428e+00 1.582946e+01 1.776357e-15
      vertex -2.222282e+00 1.632691e+01 1.776357e-15
      vertex -2.222289e+00 1.632691e+01 1.400000e+01
    endloop
  endfacet
  facet normal 6.343954e-01 -7.730089e-01 -5.665378e-08
    outer loop
      vertex -2.222289e+00 1.632691e+01 1.400000e+01
      vertex -2.828434e+00 1.582946e+01 1.400000e+01
      vertex -2.828428e+00 1.582946e+01 1.776357e-15
    endloop
  endfacet
  facet normal 4.713973e-01 -8.819209e-01 4.067029e-08
    outer loop
      vertex -2.222282e+00 1.632691e+01 1.776357e-15
      vertex -1.530735e+00 1.669655e+01 1.776357e-15
      vertex -1.530743e+00 1.669655e+01 1.400000e+01
    endloop
  endfacet
  facet normal 4.713981e-01 -8.819206e-01 -7.496311e-09
    outer loop
      vertex -1.530743e+00 1.669655e+01 1.400000e+01
      vertex -2.222289e+00 1.632691e+01 1.400000e+01
      vertex -2.222282e+00 1.632691e+01 1.776357e-15
    endloop
  endfacet
  facet normal 2.902870e-01 -9.569396e-01 6.119020e-08
    outer loop
      vertex -1.530735e+00 1.669655e+01 1.776357e-15
      vertex -7.803626e-01 1.692418e+01 1.776357e-15
      vertex -7.803718e-01 1.692418e+01 1.400000e+01
    endloop
  endfacet
  facet normal 2.902896e-01 -9.569389e-01 -8.771911e-08
    outer loop
      vertex -7.803718e-01 1.692418e+01 1.400000e+01
      vertex -1.530743e+00 1.669655e+01 1.400000e+01
      vertex -1.530735e+00 1.669655e+01 1.776357e-15
    endloop
  endfacet
  facet normal 9.801497e-02 -9.951850e-01 -7.090227e-08
    outer loop
      vertex 3.210715e-06 1.700104e+01 1.400000e+01
      vertex -7.803718e-01 1.692418e+01 1.400000e+01
      vertex -7.803626e-01 1.692418e+01 1.776357e-15
    endloop
  endfacet
  facet normal 9.801153e-02 -9.951853e-01 1.229958e-07
    outer loop
      vertex -7.803626e-01 1.692418e+01 1.776357e-15
      vertex 1.412714e-06 1.700103e+01 1.776357e-15
      vertex 3.210715e-06 1.700104e+01 1.400000e+01
    endloop
  endfacet
  facet normal 0.000000e+00 -1.000000e+00 -6.123234e-17
    outer loop
      vertex -6.999999e+00 -2.000104e+01 0.000000e+00
      vertex -2.222283e+00 -2.000104e+01 3.674121e+00
      vertex -2.828429e+00 -2.000104e+01 4.171572e+00
    endloop
  endfacet
  facet normal 0.000000e+00 -1.000000e+00 -6.123234e-17
    outer loop
      vertex -2.828429e+00 -2.000104e+01 4.171572e+00
      vertex -3.325879e+00 -2.000104e+01 4.777718e+00
      vertex -6.999999e+00 -2.000104e+01 0.000000e+00
    endloop
  endfacet
  facet normal 0.000000e+00 -1.000000e+00 -6.123234e-17
    outer loop
      vertex -6.999999e+00 -2.000104e+01 0.000000e+00
      vertex 1.549552e-06 -2.000104e+01 2.999998e+00
      vertex -7.803633e-01 -2.000104e+01 3.076857e+00
    endloop
  endfacet
  facet normal 0.000000e+00 -1.000000e+00 -6.123234e-17
    outer loop
      vertex -7.803633e-01 -2.000104e+01 3.076857e+00
      vertex -1.530735e+00 -2.000104e+01 3.304481e+00
      vertex -6.999999e+00 -2.000104e+01 0.000000e+00
    endloop
  endfacet
  facet normal 0.000000e+00 -1.000000e+00 -6.123234e-17
    outer loop
      vertex -6.999999e+00 -2.000104e+01 0.000000e+00
      vertex 1.530735e+00 -2.000104e+01 3.304481e+00
      vertex 7.803629e-01 -2.000104e+01 3.076857e+00
    endloop
  endfacet
  facet normal 0.000000e+00 -1.000000e+00 -6.123234e-17
    outer loop
      vertex 7.803629e-01 -2.000104e+01 3.076857e+00
      vertex 1.549552e-06 -2.000104e+01 2.999998e+00
      vertex -6.999999e+00 -2.000104e+01 0.000000e+00
    endloop
  endfacet
  facet normal 0.000000e+00 -1.000000e+00 -6.123234e-17
    outer loop
      vertex -6.999999e+00 -2.000104e+01 0.000000e+00
      vertex -1.530735e+00 -2.000104e+01 3.304481e+00
      vertex -2.222283e+00 -2.000104e+01 3.674121e+00
    endloop
  endfacet
  facet normal 0.000000e+00 -1.000000e+00 -6.123234e-17
    outer loop
      vertex 6.999999e+00 -2.000104e+01 0.000000e+00
      vertex 2.222283e+00 -2.000104e+01 3.674121e+00
      vertex 1.530735e+00 -2.000104e+01 3.304481e+00
    endloop
  endfacet
  facet normal 0.000000e+00 -1.000000e+00 -6.123234e-17
    outer loop
      vertex 1.530735e+00 -2.000104e+01 3.304481e+00
      vertex -6.999999e+00 -2.000104e+01 0.000000e+00
      vertex 6.999999e+00 -2.000104e+01 0.000000e+00
    endloop
  endfacet
  facet normal 0.000000e+00 -1.000000e+00 -6.123234e-17
    outer loop
      vertex 6.999999e+00 -2.000104e+01 0.000000e+00
      vertex 3.325880e+00 -2.000104e+01 4.777719e+00
      vertex 2.828429e+00 -2.000104e+01 4.171573e+00
    endloop
  endfacet
  facet normal 0.000000e+00 -1.000000e+00 -6.123234e-17
    outer loop
      vertex 2.828429e+00 -2.000104e+01 4.171573e+00
      vertex 2.222283e+00 -2.000104e+01 3.674121e+00
      vertex 6.999999e+00 -2.000104e+01 0.000000e+00
    endloop
  endfacet
  facet normal 0.000000e+00 -1.000000e+00 -6.123234e-17
    outer loop
      vertex 6.999999e+00 -2.000104e+01 0.000000e+00
      vertex 3.910695e+00 -2.000104e+01 6.178608e+00
      vertex 3.695519e+00 -2.000104e+01 5.469266e+00
    endloop
  endfacet
  facet normal 0.000000e+00 -1.000000e+00 -6.123234e-17
    outer loop
      vertex 3.695519e+00 -2.000104e+01 5.469266e+00
      vertex 3.325880e+00 -2.000104e+01 4.777719e+00
      vertex 6.999999e+00 -2.000104e+01 0.000000e+00
    endloop
  endfacet
  facet normal 0.000000e+00 -1.000000e+00 -6.123234e-17
    outer loop
      vertex -3.695519e+00 -2.000104e+01 5.469266e+00
      vertex -3.910695e+00 -2.000104e+01 6.178609e+00
      vertex -6.999999e+00 -2.000104e+01 0.000000e+00
    endloop
  endfacet
  facet normal 0.000000e+00 -1.000000e+00 -6.123234e-17
    outer loop
      vertex -6.999999e+00 -2.000104e+01 0.000000e+00
      vertex -3.325879e+00 -2.000104e+01 4.777718e+00
      vertex -3.695519e+00 -2.000104e+01 5.469266e+00
    endloop
  endfacet
  facet normal 0.000000e+00 -1.000000e+00 -6.123234e-17
    outer loop
      vertex 0.000000e+00 -2.000104e+01 1.400000e+01
      vertex -9.134783e-08 -2.000104e+01 1.100000e+01
      vertex 7.803611e-01 -2.000104e+01 1.092314e+01
    endloop
  endfacet
  facet normal 0.000000e+00 -1.000000e+00 -6.123234e-17
    outer loop
      vertex 7.803611e-01 -2.000104e+01 1.092314e+01
      vertex 1.530733e+00 -2.000104e+01 1.069552e+01
      vertex 0.000000e+00 -2.000104e+01 1.400000e+01
    endloop
  endfacet
  facet normal 0.000000e+00 -1.000000e+00 -6.123234e-17
    outer loop
      vertex 0.000000e+00 -2.000104e+01 1.400000e+01
      vertex -1.696559e+00 -2.000104e+01 1.060688e+01
      vertex -1.530734e+00 -2.000104e+01 1.069552e+01
    endloop
  endfacet
  facet normal 0.000000e+00 -1.000000e+00 -6.123234e-17
    outer loop
      vertex -1.530734e+00 -2.000104e+01 1.069552e+01
      vertex -7.803613e-01 -2.000104e+01 1.092314e+01
      vertex 0.000000e+00 -2.000104e+01 1.400000e+01
    endloop
  endfacet
  facet normal 0.000000e+00 -1.000000e+00 -6.123234e-17
    outer loop
      vertex 0.000000e+00 -2.000104e+01 1.400000e+01
      vertex -7.803613e-01 -2.000104e+01 1.092314e+01
      vertex -9.134783e-08 -2.000104e+01 1.100000e+01
    endloop
  endfacet
  facet normal 0.000000e+00 -1.000000e+00 -6.123234e-17
    outer loop
      vertex 1.530733e+00 -2.000104e+01 1.069552e+01
      vertex 1.696559e+00 -2.000104e+01 1.060688e+01
      vertex 0.000000e+00 -2.000104e+01 1.400000e+01
    endloop
  endfacet
  facet normal 0.000000e+00 -1.000000e+00 -6.123234e-17
    outer loop
      vertex 6.999999e+00 -2.000104e+01 1.400000e+01
      vertex 3.923141e+00 -2.000104e+01 7.780361e+00
      vertex 4.000000e+00 -2.000104e+01 7.000000e+00
    endloop
  endfacet
  facet normal 0.000000e+00 -1.000000e+00 -6.123234e-17
    outer loop
      vertex 4.000000e+00 -2.000104e+01 7.000000e+00
      vertex 3.923142e+00 -2.000104e+01 6.219639e+00
      vertex 6.999999e+00 -2.000104e+01 1.400000e+01
    endloop
  endfacet
  facet normal 0.000000e+00 -1.000000e+00 -6.123234e-17
    outer loop
      vertex 6.999999e+00 -2.000104e+01 1.400000e+01
      vertex 2.828427e+00 -2.000104e+01 9.828426e+00
      vertex 3.325878e+00 -2.000104e+01 9.222280e+00
    endloop
  endfacet
  facet normal 0.000000e+00 -1.000000e+00 -6.123234e-17
    outer loop
      vertex 3.325878e+00 -2.000104e+01 9.222280e+00
      vertex 3.695518e+00 -2.000104e+01 8.530733e+00
      vertex 6.999999e+00 -2.000104e+01 1.400000e+01
    endloop
  endfacet
  facet normal 0.000000e+00 -1.000000e+00 -6.123234e-17
    outer loop
      vertex 6.999999e+00 -2.000104e+01 1.400000e+01
      vertex 3.695518e+00 -2.000104e+01 8.530733e+00
      vertex 3.923141e+00 -2.000104e+01 7.780361e+00
    endloop
  endfacet
  facet normal 0.000000e+00 -1.000000e+00 -6.123234e-17
    outer loop
      vertex 6.999999e+00 -2.000104e+01 1.400000e+01
      vertex 1.696559e+00 -2.000104e+01 1.060688e+01
      vertex 2.222281e+00 -2.000104e+01 1.032588e+01
    endloop
  endfacet
  facet normal 0.000000e+00 -1.000000e+00 -6.123234e-17
    outer loop
      vertex 2.222281e+00 -2.000104e+01 1.032588e+01
      vertex 2.828427e+00 -2.000104e+01 9.828426e+00
      vertex 6.999999e+00 -2.000104e+01 1.400000e+01
    endloop
  endfacet
  facet normal 0.000000e+00 -1.000000e+00 -6.123234e-17
    outer loop
      vertex 3.910695e+00 -2.000104e+01 6.178608e+00
      vertex 6.999999e+00 -2.000104e+01 0.000000e+00
      vertex 6.999999e+00 -2.000104e+01 1.400000e+01
    endloop
  endfacet
  facet normal 0.000000e+00 -1.000000e+00 -6.123234e-17
    outer loop
      vertex 6.999999e+00 -2.000104e+01 1.400000e+01
      vertex 3.923142e+00 -2.000104e+01 6.219639e+00
      vertex 3.910695e+00 -2.000104e+01 6.178608e+00
    endloop
  endfacet
  facet normal 0.000000e+00 -1.000000e+00 -6.123234e-17
    outer loop
      vertex 6.999999e+00 -2.000104e+01 1.400000e+01
      vertex 0.000000e+00 -2.000104e+01 1.400000e+01
      vertex 1.696559e+00 -2.000104e+01 1.060688e+01
    endloop
  endfacet
  facet normal 0.000000e+00 -1.000000e+00 -6.123234e-17
    outer loop
      vertex -6.999999e+00 -2.000104e+01 1.400000e+01
      vertex -3.325878e+00 -2.000104e+01 9.222280e+00
      vertex -2.828427e+00 -2.000104e+01 9.828426e+00
    endloop
  endfacet
  facet normal 0.000000e+00 -1.000000e+00 -6.123234e-17
    outer loop
      vertex -2.828427e+00 -2.000104e+01 9.828426e+00
      vertex -2.222281e+00 -2.000104e+01 1.032588e+01
      vertex -6.999999e+00 -2.000104e+01 1.400000e+01
    endloop
  endfacet
  facet normal 0.000000e+00 -1.000000e+00 -6.123234e-17
    outer loop
      vertex -6.999999e+00 -2.000104e+01 1.400000e+01
      vertex -4.000000e+00 -2.000104e+01 6.999999e+00
      vertex -3.923141e+00 -2.000104e+01 7.780361e+00
    endloop
  endfacet
  facet normal 0.000000e+00 -1.000000e+00 -6.123234e-17
    outer loop
      vertex -3.923141e+00 -2.000104e+01 7.780361e+00
      vertex -3.695518e+00 -2.000104e+01 8.530733e+00
      vertex -6.999999e+00 -2.000104e+01 1.400000e+01
    endloop
  endfacet
  facet normal 0.000000e+00 -1.000000e+00 -6.123234e-17
    outer loop
      vertex -6.999999e+00 -2.000104e+01 1.400000e+01
      vertex -3.910695e+00 -2.000104e+01 6.178609e+00
      vertex -3.923141e+00 -2.000104e+01 6.219638e+00
    endloop
  endfacet
  facet normal 0.000000e+00 -1.000000e+00 -6.123234e-17
    outer loop
      vertex -3.923141e+00 -2.000104e+01 6.219638e+00
      vertex -4.000000e+00 -2.000104e+01 6.999999e+00
      vertex -6.999999e+00 -2.000104e+01 1.400000e+01
    endloop
  endfacet
  facet normal 0.000000e+00 -1.000000e+00 -6.123234e-17
    outer loop
      vertex -6.999999e+00 -2.000104e+01 1.400000e+01
      vertex -3.695518e+00 -2.000104e+01 8.530733e+00
      vertex -3.325878e+00 -2.000104e+01 9.222280e+00
    endloop
  endfacet
  facet normal 0.000000e+00 -1.000000e+00 -6.123234e-17
    outer loop
      vertex -1.696559e+00 -2.000104e+01 1.060688e+01
      vertex 0.000000e+00 -2.000104e+01 1.400000e+01
      vertex -6.999999e+00 -2.000104e+01 1.400000e+01
    endloop
  endfacet
  facet normal 0.000000e+00 -1.000000e+00 -6.123234e-17
    outer loop
      vertex -6.999999e+00 -2.000104e+01 1.400000e+01
      vertex -2.222281e+00 -2.000104e+01 1.032588e+01
      vertex -1.696559e+00 -2.000104e+01 1.060688e+01
    endloop
  endfacet
  facet normal 0.000000e+00 -1.000000e+00 -6.123234e-17
    outer loop
      vertex -6.999999e+00 -2.000104e+01 1.400000e+01
      vertex -6.999999e+00 -2.000104e+01 0.000000e+00
      vertex -3.910695e+00 -2.000104e+01 6.178609e+00
    endloop
  endfacet
  facet normal 0.000000e+00 -6.123234e-17 1.000000e+00
    outer loop
      vertex -6.999999e+00 -2.000104e+01 1.400000e+01
      vertex 0.000000e+00 -2.000104e+01 1.400000e+01
      vertex 6.999999e+00 2.000104e+01 1.400000e+01
    endloop
  endfacet
  facet normal 0.000000e+00 -6.123234e-17 1.000000e+00
    outer loop
      vertex 0.000000e+00 -2.000104e+01 1.400000e+01
      vertex 6.999999e+00 -2.000104e+01 1.400000e+01
      vertex 6.999999e+00 2.000104e+01 1.400000e+01
    endloop
  endfacet
  facet normal 0.000000e+00 -1.000000e+00 -6.123234e-17
    outer loop
      vertex 0.000000e+00 2.759676e+00 6.999998e+00
      vertex 6.421429e-06 2.759676e+00 2.999998e+00
      vertex 7.803679e-01 2.759676e+00 3.076858e+00
    endloop
  endfacet
  facet normal 0.000000e+00 -1.000000e+00 -6.123234e-17
    outer loop
      vertex 0.000000e+00 2.759676e+00 6.999998e+00
      vertex 7.803679e-01 2.759676e+00 3.076858e+00
      vertex 1.530740e+00 2.759676e+00 3.304483e+00
    endloop
  endfacet
  facet normal 0.000000e+00 -1.000000e+00 -6.123234e-17
    outer loop
      vertex 0.000000e+00 2.759676e+00 6.999998e+00
      vertex 1.530740e+00 2.759676e+00 3.304483e+00
      vertex 2.222287e+00 2.759676e+00 3.674124e+00
    endloop
  endfacet
  facet normal 0.000000e+00 -1.000000e+00 -6.123234e-17
    outer loop
      vertex 0.000000e+00 2.759676e+00 6.999998e+00
      vertex 2.222287e+00 2.759676e+00 3.674124e+00
      vertex 2.828433e+00 2.759676e+00 4.171576e+00
    endloop
  endfacet
  facet normal 0.000000e+00 -1.000000e+00 -6.123234e-17
    outer loop
      vertex 0.000000e+00 2.759676e+00 6.999998e+00
      vertex 2.828433e+00 2.759676e+00 4.171576e+00
      vertex 3.325883e+00 2.759676e+00 4.777724e+00
    endloop
  endfacet
  facet normal 0.000000e+00 -1.000000e+00 -6.123234e-17
    outer loop
      vertex 0.000000e+00 2.759676e+00 6.999998e+00
      vertex 3.325883e+00 2.759676e+00 4.777724e+00
      vertex 3.695521e+00 2.759676e+00 5.469272e+00
    endloop
  endfacet
  facet normal 0.000000e+00 -1.000000e+00 -6.123234e-17
    outer loop
      vertex 0.000000e+00 2.759676e+00 6.999998e+00
      vertex 3.695521e+00 2.759676e+00 5.469272e+00
      vertex 3.923143e+00 2.759676e+00 6.219646e+00
    endloop
  endfacet
  facet normal 0.000000e+00 -1.000000e+00 -6.123234e-17
    outer loop
      vertex 0.000000e+00 2.759676e+00 6.999998e+00
      vertex 3.923143e+00 2.759676e+00 6.219646e+00
      vertex 4.000000e+00 2.759676e+00 7.000007e+00
    endloop
  endfacet
  facet normal 0.000000e+00 -1.000000e+00 -6.123234e-17
    outer loop
      vertex 0.000000e+00 2.759676e+00 6.999998e+00
      vertex 4.000000e+00 2.759676e+00 7.000007e+00
      vertex 3.923140e+00 2.759676e+00 7.780367e+00
    endloop
  endfacet
  facet normal 0.000000e+00 -1.000000e+00 -6.123234e-17
    outer loop
      vertex 0.000000e+00 2.759676e+00 6.999998e+00
      vertex 3.923140e+00 2.759676e+00 7.780367e+00
      vertex 3.695516e+00 2.759676e+00 8.530738e+00
    endloop
  endfacet
  facet normal 0.000000e+00 -1.000000e+00 -6.123234e-17
    outer loop
      vertex 0.000000e+00 2.759676e+00 6.999998e+00
      vertex 3.695516e+00 2.759676e+00 8.530738e+00
      vertex 3.325876e+00 2.759676e+00 9.222283e+00
    endloop
  endfacet
  facet normal 0.000000e+00 -1.000000e+00 -6.123234e-17
    outer loop
      vertex 0.000000e+00 2.759676e+00 6.999998e+00
      vertex 3.325876e+00 2.759676e+00 9.222283e+00
      vertex 2.828425e+00 2.759676e+00 9.828428e+00
    endloop
  endfacet
  facet normal 0.000000e+00 -1.000000e+00 -6.123234e-17
    outer loop
      vertex 0.000000e+00 2.759676e+00 6.999998e+00
      vertex 2.828425e+00 2.759676e+00 9.828428e+00
      vertex 2.222280e+00 2.759676e+00 1.032588e+01
    endloop
  endfacet
  facet normal 0.000000e+00 -1.000000e+00 -6.123234e-17
    outer loop
      vertex 0.000000e+00 2.759676e+00 6.999998e+00
      vertex 2.222280e+00 2.759676e+00 1.032588e+01
      vertex 1.530734e+00 2.759676e+00 1.069552e+01
    endloop
  endfacet
  facet normal 0.000000e+00 -1.000000e+00 -6.123234e-17
    outer loop
      vertex 0.000000e+00 2.759676e+00 6.999998e+00
      vertex 1.530734e+00 2.759676e+00 1.069552e+01
      vertex 7.803634e-01 2.759676e+00 1.092314e+01
    endloop
  endfacet
  facet normal 0.000000e+00 -1.000000e+00 -6.123234e-17
    outer loop
      vertex 0.000000e+00 2.759676e+00 6.999998e+00
      vertex 7.803634e-01 2.759676e+00 1.092314e+01
      vertex 3.719299e-06 2.759676e+00 1.100000e+01
    endloop
  endfacet
  facet normal 0.000000e+00 -1.000000e+00 -6.123234e-17
    outer loop
      vertex 0.000000e+00 2.759676e+00 6.999998e+00
      vertex 3.719299e-06 2.759676e+00 1.100000e+01
      vertex -7.803562e-01 2.759676e+00 1.092314e+01
    endloop
  endfacet
  facet normal 0.000000e+00 -1.000000e+00 -6.123234e-17
    outer loop
      vertex 0.000000e+00 2.759676e+00 6.999998e+00
      vertex -7.803562e-01 2.759676e+00 1.092314e+01
      vertex -1.530728e+00 2.759676e+00 1.069552e+01
    endloop
  endfacet
  facet normal 0.000000e+00 -1.000000e+00 -6.123234e-17
    outer loop
      vertex 0.000000e+00 2.759676e+00 6.999998e+00
      vertex -1.530728e+00 2.759676e+00 1.069552e+01
      vertex -2.222274e+00 2.759676e+00 1.032588e+01
    endloop
  endfacet
  facet normal 0.000000e+00 -1.000000e+00 -6.123234e-17
    outer loop
      vertex 0.000000e+00 2.759676e+00 6.999998e+00
      vertex -2.222274e+00 2.759676e+00 1.032588e+01
      vertex -2.828420e+00 2.759676e+00 9.828433e+00
    endloop
  endfacet
  facet normal 0.000000e+00 -1.000000e+00 -6.123234e-17
    outer loop
      vertex 0.000000e+00 2.759676e+00 6.999998e+00
      vertex -2.828420e+00 2.759676e+00 9.828433e+00
      vertex -3.325872e+00 2.759676e+00 9.222289e+00
    endloop
  endfacet
  facet normal 0.000000e+00 -1.000000e+00 -6.123234e-17
    outer loop
      vertex 0.000000e+00 2.759676e+00 6.999998e+00
      vertex -3.325872e+00 2.759676e+00 9.222289e+00
      vertex -3.695513e+00 2.759676e+00 8.530744e+00
    endloop
  endfacet
  facet normal 0.000000e+00 -1.000000e+00 -6.123234e-17
    outer loop
      vertex 0.000000e+00 2.759676e+00 6.999998e+00
      vertex -3.695513e+00 2.759676e+00 8.530744e+00
      vertex -3.923138e+00 2.759676e+00 7.780374e+00
    endloop
  endfacet
  facet normal 0.000000e+00 -1.000000e+00 -6.123234e-17
    outer loop
      vertex 0.000000e+00 2.759676e+00 6.999998e+00
      vertex -3.923138e+00 2.759676e+00 7.780374e+00
      vertex -4.000000e+00 2.759676e+00 7.000015e+00
    endloop
  endfacet
  facet normal 0.000000e+00 -1.000000e+00 -6.123234e-17
    outer loop
      vertex 0.000000e+00 2.759676e+00 6.999998e+00
      vertex -4.000000e+00 2.759676e+00 7.000015e+00
      vertex -3.923145e+00 2.759676e+00 6.219655e+00
    endloop
  endfacet
  facet normal 0.000000e+00 -1.000000e+00 -6.123234e-17
    outer loop
      vertex 0.000000e+00 2.759676e+00 6.999998e+00
      vertex -3.923145e+00 2.759676e+00 6.219655e+00
      vertex -3.695526e+00 2.759676e+00 5.469283e+00
    endloop
  endfacet
  facet normal 0.000000e+00 -1.000000e+00 -6.123234e-17
    outer loop
      vertex 0.000000e+00 2.759676e+00 6.999998e+00
      vertex -3.695526e+00 2.759676e+00 5.469283e+00
      vertex -3.325890e+00 2.759676e+00 4.777735e+00
    endloop
  endfacet
  facet normal 0.000000e+00 -1.000000e+00 -6.123234e-17
    outer loop
      vertex 0.000000e+00 2.759676e+00 6.999998e+00
      vertex -3.325890e+00 2.759676e+00 4.777735e+00
      vertex -2.828444e+00 2.759676e+00 4.171587e+00
    endloop
  endfacet
  facet normal 0.000000e+00 -1.000000e+00 -6.123234e-17
    outer loop
      vertex 0.000000e+00 2.759676e+00 6.999998e+00
      vertex -2.828444e+00 2.759676e+00 4.171587e+00
      vertex -2.222301e+00 2.759676e+00 3.674133e+00
    endloop
  endfacet
  facet normal 0.000000e+00 -1.000000e+00 -6.123234e-17
    outer loop
      vertex 0.000000e+00 2.759676e+00 6.999998e+00
      vertex -2.222301e+00 2.759676e+00 3.674133e+00
      vertex -1.530758e+00 2.759676e+00 3.304490e+00
    endloop
  endfacet
  facet normal 0.000000e+00 -1.000000e+00 -6.123234e-17
    outer loop
      vertex 0.000000e+00 2.759676e+00 6.999998e+00
      vertex -1.530758e+00 2.759676e+00 3.304490e+00
      vertex -7.803883e-01 2.759676e+00 3.076863e+00
    endloop
  endfacet
  facet normal 0.000000e+00 -1.000000e+00 -6.123234e-17
    outer loop
      vertex 0.000000e+00 2.759676e+00 6.999998e+00
      vertex -7.803883e-01 2.759676e+00 3.076863e+00
      vertex 6.421429e-06 2.759676e+00 2.999998e+00
    endloop
  endfacet
  facet normal -9.801877e-02 -2.013656e-08 9.951845e-01
    outer loop
      vertex 7.803629e-01 -2.000104e+01 3.076857e+00
      vertex 7.803679e-01 2.759676e+00 3.076858e+00
      vertex 6.421429e-06 2.759676e+00 2.999998e+00
    endloop
  endfacet
  facet normal -9.801758e-02 2.098044e-08 9.951847e-01
    outer loop
      vertex 6.421429e-06 2.759676e+00 2.999998e+00
      vertex 1.549552e-06 -2.000104e+01 2.999998e+00
      vertex 7.803629e-01 -2.000104e+01 3.076857e+00
    endloop
  endfacet
  facet normal -2.902864e-01 -2.788014e-08 9.569398e-01
    outer loop
      vertex 1.530735e+00 -2.000104e+01 3.304481e+00
      vertex 1.530740e+00 2.759676e+00 3.304483e+00
      vertex 7.803679e-01 2.759676e+00 3.076858e+00
    endloop
  endfacet
  facet normal -2.902849e-01 2.375964e-08 9.569402e-01
    outer loop
      vertex 7.803679e-01 2.759676e+00 3.076858e+00
      vertex 7.803629e-01 -2.000104e+01 3.076857e+00
      vertex 1.530735e+00 -2.000104e+01 3.304481e+00
    endloop
  endfacet
  facet normal -4.713985e-01 -3.551354e-08 8.819203e-01
    outer loop
      vertex 2.222283e+00 -2.000104e+01 3.674121e+00
      vertex 2.222287e+00 2.759676e+00 3.674124e+00
      vertex 1.530740e+00 2.759676e+00 3.304483e+00
    endloop
  endfacet
  facet normal -4.713971e-01 1.808354e-08 8.819211e-01
    outer loop
      vertex 1.530740e+00 2.759676e+00 3.304483e+00
      vertex 1.530735e+00 -2.000104e+01 3.304481e+00
      vertex 2.222283e+00 -2.000104e+01 3.674121e+00
    endloop
  endfacet
  facet normal -6.343945e-01 -1.658658e-08 7.730094e-01
    outer loop
      vertex 2.828429e+00 -2.000104e+01 4.171573e+00
      vertex 2.828433e+00 2.759676e+00 4.171576e+00
      vertex 2.222287e+00 2.759676e+00 3.674124e+00
    endloop
  endfacet
  facet normal -6.343939e-01 1.289833e-08 7.730100e-01
    outer loop
      vertex 2.222287e+00 2.759676e+00 3.674124e+00
      vertex 2.222283e+00 -2.000104e+01 3.674121e+00
      vertex 2.828429e+00 -2.000104e+01 4.171573e+00
    endloop
  endfacet
  facet normal -7.730117e-01 -2.618816e-08 6.343917e-01
    outer loop
      vertex 3.325880e+00 -2.000104e+01 4.777719e+00
      vertex 3.325883e+00 2.759676e+00 4.777724e+00
      vertex 2.828433e+00 2.759676e+00 4.171576e+00
    endloop
  endfacet
  facet normal -7.730107e-01 3.132963e-08 6.343930e-01
    outer loop
      vertex 2.828433e+00 2.759676e+00 4.171576e+00
      vertex 2.828429e+00 -2.000104e+01 4.171573e+00
      vertex 3.325880e+00 -2.000104e+01 4.777719e+00
    endloop
  endfacet
  facet normal -8.819224e-01 -3.783435e-08 4.713947e-01
    outer loop
      vertex 3.695519e+00 -2.000104e+01 5.469266e+00
      vertex 3.695521e+00 2.759676e+00 5.469272e+00
      vertex 3.325883e+00 2.759676e+00 4.777724e+00
    endloop
  endfacet
  facet normal -8.819215e-01 2.563838e-08 4.713964e-01
    outer loop
      vertex 3.325883e+00 2.759676e+00 4.777724e+00
      vertex 3.325880e+00 -2.000104e+01 4.777719e+00
      vertex 3.695519e+00 -2.000104e+01 5.469266e+00
    endloop
  endfacet
  facet normal -9.569393e-01 1.430427e-07 2.902879e-01
    outer loop
      vertex 3.910695e+00 -2.000104e+01 6.178608e+00
      vertex 3.923142e+00 -2.000104e+01 6.219639e+00
      vertex 3.695521e+00 2.759676e+00 5.469272e+00
    endloop
  endfacet
  facet normal -9.569405e-01 1.571778e-08 2.902841e-01
    outer loop
      vertex 3.695521e+00 2.759676e+00 5.469272e+00
      vertex 3.695519e+00 -2.000104e+01 5.469266e+00
      vertex 3.910695e+00 -2.000104e+01 6.178608e+00
    endloop
  endfacet
  facet normal -9.569408e-01 -3.349988e-08 2.902830e-01
    outer loop
      vertex 3.923142e+00 -2.000104e+01 6.219639e+00
      vertex 3.923143e+00 2.759676e+00 6.219646e+00
      vertex 3.695521e+00 2.759676e+00 5.469272e+00
    endloop
  endfacet
  facet normal -9.951850e-01 -3.032727e-08 9.801482e-02
    outer loop
      vertex 4.000000e+00 -2.000104e+01 7.000000e+00
      vertex 4.000000e+00 2.759676e+00 7.000007e+00
      vertex 3.923143e+00 2.759676e+00 6.219646e+00
    endloop
  endfacet
  facet normal -9.951848e-01 2.388797e-08 9.801639e-02
    outer loop
      vertex 3.923143e+00 2.759676e+00 6.219646e+00
      vertex 3.923142e+00 -2.000104e+01 6.219639e+00
      vertex 4.000000e+00 -2.000104e+01 7.000000e+00
    endloop
  endfacet
  facet normal -9.951845e-01 -3.713517e-08 -9.801961e-02
    outer loop
      vertex 3.923141e+00 -2.000104e+01 7.780361e+00
      vertex 3.923140e+00 2.759676e+00 7.780367e+00
      vertex 4.000000e+00 2.759676e+00 7.000007e+00
    endloop
  endfacet
  facet normal -9.951847e-01 3.032815e-08 -9.801766e-02
    outer loop
      vertex 4.000000e+00 2.759676e+00 7.000007e+00
      vertex 4.000000e+00 -2.000104e+01 7.000000e+00
      vertex 3.923141e+00 -2.000104e+01 7.780361e+00
    endloop
  endfacet
  facet normal -9.569401e-01 -1.239354e-08 -2.902856e-01
    outer loop
      vertex 3.695518e+00 -2.000104e+01 8.530733e+00
      vertex 3.695516e+00 2.759676e+00 8.530738e+00
      vertex 3.923140e+00 2.759676e+00 7.780367e+00
    endloop
  endfacet
  facet normal -9.569403e-01 1.511447e-08 -2.902848e-01
    outer loop
      vertex 3.923140e+00 2.759676e+00 7.780367e+00
      vertex 3.923141e+00 -2.000104e+01 7.780361e+00
      vertex 3.695518e+00 -2.000104e+01 8.530733e+00
    endloop
  endfacet
  facet normal -8.819204e-01 -2.882618e-08 -4.713984e-01
    outer loop
      vertex 3.325878e+00 -2.000104e+01 9.222280e+00
      vertex 3.325876e+00 2.759676e+00 9.222283e+00
      vertex 3.695516e+00 2.759676e+00 8.530738e+00
    endloop
  endfacet
  facet normal -8.819212e-01 2.915291e-08 -4.713969e-01
    outer loop
      vertex 3.695516e+00 2.759676e+00 8.530738e+00
      vertex 3.695518e+00 -2.000104e+01 8.530733e+00
      vertex 3.325878e+00 -2.000104e+01 9.222280e+00
    endloop
  endfacet
  facet normal -7.730100e-01 -2.066748e-09 -6.343939e-01
    outer loop
      vertex 2.828427e+00 -2.000104e+01 9.828426e+00
      vertex 2.828425e+00 2.759676e+00 9.828428e+00
      vertex 3.325876e+00 2.759676e+00 9.222283e+00
    endloop
  endfacet
  facet normal -7.730100e-01 2.225069e-10 -6.343938e-01
    outer loop
      vertex 3.325876e+00 2.759676e+00 9.222283e+00
      vertex 3.325878e+00 -2.000104e+01 9.222280e+00
      vertex 2.828427e+00 -2.000104e+01 9.828426e+00
    endloop
  endfacet
  facet normal -6.343930e-01 -3.741229e-09 -7.730107e-01
    outer loop
      vertex 2.222281e+00 -2.000104e+01 1.032588e+01
      vertex 2.222280e+00 2.759676e+00 1.032588e+01
      vertex 2.828425e+00 2.759676e+00 9.828428e+00
    endloop
  endfacet
  facet normal -6.343935e-01 1.680936e-08 -7.730103e-01
    outer loop
      vertex 2.828425e+00 2.759676e+00 9.828428e+00
      vertex 2.828427e+00 -2.000104e+01 9.828426e+00
      vertex 2.222281e+00 -2.000104e+01 1.032588e+01
    endloop
  endfacet
  facet normal -4.713970e-01 5.575530e-09 -8.819211e-01
    outer loop
      vertex 1.696559e+00 -2.000104e+01 1.060688e+01
      vertex 1.530733e+00 -2.000104e+01 1.069552e+01
      vertex 1.530734e+00 2.759676e+00 1.069552e+01
    endloop
  endfacet
  facet normal -4.713965e-01 1.000998e-08 -8.819214e-01
    outer loop
      vertex 1.530734e+00 2.759676e+00 1.069552e+01
      vertex 2.222281e+00 -2.000104e+01 1.032588e+01
      vertex 1.696559e+00 -2.000104e+01 1.060688e+01
    endloop
  endfacet
  facet normal -4.713967e-01 3.662611e-09 -8.819213e-01
    outer loop
      vertex 1.530734e+00 2.759676e+00 1.069552e+01
      vertex 2.222280e+00 2.759676e+00 1.032588e+01
      vertex 2.222281e+00 -2.000104e+01 1.032588e+01
    endloop
  endfacet
  facet normal -2.902847e-01 8.839061e-09 -9.569404e-01
    outer loop
      vertex 1.530733e+00 -2.000104e+01 1.069552e+01
      vertex 7.803611e-01 -2.000104e+01 1.092314e+01
      vertex 7.803634e-01 2.759676e+00 1.092314e+01
    endloop
  endfacet
  facet normal -2.902850e-01 -9.017441e-10 -9.569402e-01
    outer loop
      vertex 7.803634e-01 2.759676e+00 1.092314e+01
      vertex 1.530734e+00 2.759676e+00 1.069552e+01
      vertex 1.530733e+00 -2.000104e+01 1.069552e+01
    endloop
  endfacet
  facet normal -9.801700e-02 1.641021e-08 -9.951847e-01
    outer loop
      vertex 7.803611e-01 -2.000104e+01 1.092314e+01
      vertex -9.134783e-08 -2.000104e+01 1.100000e+01
      vertex 3.719299e-06 2.759676e+00 1.100000e+01
    endloop
  endfacet
  facet normal -9.801780e-02 -1.109513e-08 -9.951847e-01
    outer loop
      vertex 3.719299e-06 2.759676e+00 1.100000e+01
      vertex 7.803634e-01 2.759676e+00 1.092314e+01
      vertex 7.803611e-01 -2.000104e+01 1.092314e+01
    endloop
  endfacet
  facet normal 9.801700e-02 1.962360e-08 -9.951847e-01
    outer loop
      vertex -9.134783e-08 -2.000104e+01 1.100000e+01
      vertex -7.803613e-01 -2.000104e+01 1.092314e+01
      vertex -7.803562e-01 2.759676e+00 1.092314e+01
    endloop
  endfacet
  facet normal 9.801596e-02 -1.641004e-08 -9.951848e-01
    outer loop
      vertex -7.803562e-01 2.759676e+00 1.092314e+01
      vertex 3.719299e-06 2.759676e+00 1.100000e+01
      vertex -9.134783e-08 -2.000104e+01 1.100000e+01
    endloop
  endfacet
  facet normal 2.902847e-01 3.272478e-08 -9.569403e-01
    outer loop
      vertex -7.803613e-01 -2.000104e+01 1.092314e+01
      vertex -1.530734e+00 -2.000104e+01 1.069552e+01
      vertex -1.530728e+00 2.759676e+00 1.069552e+01
    endloop
  endfacet
  facet normal 2.902831e-01 -2.527958e-08 -9.569408e-01
    outer loop
      vertex -1.530728e+00 2.759676e+00 1.069552e+01
      vertex -7.803562e-01 2.759676e+00 1.092314e+01
      vertex -7.803613e-01 -2.000104e+01 1.092314e+01
    endloop
  endfacet
  facet normal 4.713973e-01 5.914967e-08 -8.819210e-01
    outer loop
      vertex -1.530734e+00 -2.000104e+01 1.069552e+01
      vertex -1.696559e+00 -2.000104e+01 1.060688e+01
      vertex -2.222274e+00 2.759676e+00 1.032588e+01
    endloop
  endfacet
  facet normal 4.713951e-01 -2.429607e-08 -8.819221e-01
    outer loop
      vertex -2.222274e+00 2.759676e+00 1.032588e+01
      vertex -1.530728e+00 2.759676e+00 1.069552e+01
      vertex -1.530734e+00 -2.000104e+01 1.069552e+01
    endloop
  endfacet
  facet normal 4.713967e-01 4.156400e-08 -8.819213e-01
    outer loop
      vertex -1.696559e+00 -2.000104e+01 1.060688e+01
      vertex -2.222281e+00 -2.000104e+01 1.032588e+01
      vertex -2.222274e+00 2.759676e+00 1.032588e+01
    endloop
  endfacet
  facet normal 6.343933e-01 5.020571e-08 -7.730104e-01
    outer loop
      vertex -2.222281e+00 -2.000104e+01 1.032588e+01
      vertex -2.828427e+00 -2.000104e+01 9.828426e+00
      vertex -2.828420e+00 2.759676e+00 9.828433e+00
    endloop
  endfacet
  facet normal 6.343915e-01 -3.076630e-08 -7.730119e-01
    outer loop
      vertex -2.828420e+00 2.759676e+00 9.828433e+00
      vertex -2.222274e+00 2.759676e+00 1.032588e+01
      vertex -2.222281e+00 -2.000104e+01 1.032588e+01
    endloop
  endfacet
  facet normal 7.730102e-01 4.199108e-08 -6.343936e-01
    outer loop
      vertex -2.828427e+00 -2.000104e+01 9.828426e+00
      vertex -3.325878e+00 -2.000104e+01 9.222280e+00
      vertex -3.325872e+00 2.759676e+00 9.222289e+00
    endloop
  endfacet
  facet normal 7.730088e-01 -3.546200e-08 -6.343954e-01
    outer loop
      vertex -3.325872e+00 2.759676e+00 9.222289e+00
      vertex -2.828420e+00 2.759676e+00 9.828433e+00
      vertex -2.828427e+00 -2.000104e+01 9.828426e+00
    endloop
  endfacet
  facet normal 8.819213e-01 5.225579e-08 -4.713967e-01
    outer loop
      vertex -3.325878e+00 -2.000104e+01 9.222280e+00
      vertex -3.695518e+00 -2.000104e+01 8.530733e+00
      vertex -3.695513e+00 2.759676e+00 8.530744e+00
    endloop
  endfacet
  facet normal 8.819199e-01 -5.255036e-08 -4.713994e-01
    outer loop
      vertex -3.695513e+00 2.759676e+00 8.530744e+00
      vertex -3.325872e+00 2.759676e+00 9.222289e+00
      vertex -3.325878e+00 -2.000104e+01 9.222280e+00
    endloop
  endfacet
  facet normal 9.569403e-01 5.379456e-08 -2.902847e-01
    outer loop
      vertex -3.695518e+00 -2.000104e+01 8.530733e+00
      vertex -3.923141e+00 -2.000104e+01 7.780361e+00
      vertex -3.923138e+00 2.759676e+00 7.780374e+00
    endloop
  endfacet
  facet normal 9.569394e-01 -5.452216e-08 -2.902877e-01
    outer loop
      vertex -3.923138e+00 2.759676e+00 7.780374e+00
      vertex -3.695513e+00 2.759676e+00 8.530744e+00
      vertex -3.695518e+00 -2.000104e+01 8.530733e+00
    endloop
  endfacet
  facet normal 9.951847e-01 6.626465e-08 -9.801760e-02
    outer loop
      vertex -3.923141e+00 -2.000104e+01 7.780361e+00
      vertex -4.000000e+00 -2.000104e+01 6.999999e+00
      vertex -4.000000e+00 2.759676e+00 7.000015e+00
    endloop
  endfacet
  facet normal 9.951843e-01 -6.631186e-08 -9.802143e-02
    outer loop
      vertex -4.000000e+00 2.759676e+00 7.000015e+00
      vertex -3.923138e+00 2.759676e+00 7.780374e+00
      vertex -3.923141e+00 -2.000104e+01 7.780361e+00
    endloop
  endfacet
  facet normal 9.951847e-01 6.441839e-08 9.801700e-02
    outer loop
      vertex -4.000000e+00 -2.000104e+01 6.999999e+00
      vertex -3.923141e+00 -2.000104e+01 6.219638e+00
      vertex -3.923145e+00 2.759676e+00 6.219655e+00
    endloop
  endfacet
  facet normal 9.951851e-01 -6.626169e-08 9.801322e-02
    outer loop
      vertex -3.923145e+00 2.759676e+00 6.219655e+00
      vertex -4.000000e+00 2.759676e+00 7.000015e+00
      vertex -4.000000e+00 -2.000104e+01 6.999999e+00
    endloop
  endfacet
  facet normal 9.569364e-01 5.566741e-07 2.902975e-01
    outer loop
      vertex -3.923141e+00 -2.000104e+01 6.219638e+00
      vertex -3.910695e+00 -2.000104e+01 6.178609e+00
      vertex -3.695526e+00 2.759676e+00 5.469283e+00
    endloop
  endfacet
  facet normal 9.569418e-01 -8.025567e-08 2.902798e-01
    outer loop
      vertex -3.695526e+00 2.759676e+00 5.469283e+00
      vertex -3.923145e+00 2.759676e+00 6.219655e+00
      vertex -3.923141e+00 -2.000104e+01 6.219638e+00
    endloop
  endfacet
  facet normal 9.569407e-01 7.328337e-08 2.902833e-01
    outer loop
      vertex -3.910695e+00 -2.000104e+01 6.178609e+00
      vertex -3.695519e+00 -2.000104e+01 5.469266e+00
      vertex -3.695526e+00 2.759676e+00 5.469283e+00
    endloop
  endfacet
  facet normal 8.819214e-01 8.424017e-08 4.713966e-01
    outer loop
      vertex -3.695519e+00 -2.000104e+01 5.469266e+00
      vertex -3.325879e+00 -2.000104e+01 4.777718e+00
      vertex -3.325890e+00 2.759676e+00 4.777735e+00
    endloop
  endfacet
  facet normal 8.819237e-01 -8.514880e-08 4.713922e-01
    outer loop
      vertex -3.325890e+00 2.759676e+00 4.777735e+00
      vertex -3.695526e+00 2.759676e+00 5.469283e+00
      vertex -3.695519e+00 -2.000104e+01 5.469266e+00
    endloop
  endfacet
  facet normal 7.730107e-01 9.812263e-08 6.343930e-01
    outer loop
      vertex -3.325879e+00 -2.000104e+01 4.777718e+00
      vertex -2.828429e+00 -2.000104e+01 4.171572e+00
      vertex -2.828444e+00 2.759676e+00 4.171587e+00
    endloop
  endfacet
  facet normal 7.730141e-01 -8.604358e-08 6.343888e-01
    outer loop
      vertex -2.828444e+00 2.759676e+00 4.171587e+00
      vertex -3.325890e+00 2.759676e+00 4.777735e+00
      vertex -3.325879e+00 -2.000104e+01 4.777718e+00
    endloop
  endfacet
  facet normal 6.343936e-01 9.582075e-08 7.730101e-01
    outer loop
      vertex -2.828429e+00 -2.000104e+01 4.171572e+00
      vertex -2.222283e+00 -2.000104e+01 3.674121e+00
      vertex -2.222301e+00 2.759676e+00 3.674133e+00
    endloop
  endfacet
  facet normal 6.343977e-01 -8.337445e-08 7.730069e-01
    outer loop
      vertex -2.222301e+00 2.759676e+00 3.674133e+00
      vertex -2.828444e+00 2.759676e+00 4.171587e+00
      vertex -2.828429e+00 -2.000104e+01 4.171572e+00
    endloop
  endfacet
  facet normal 4.713970e-01 1.106434e-07 8.819212e-01
    outer loop
      vertex -2.222283e+00 -2.000104e+01 3.674121e+00
      vertex -1.530735e+00 -2.000104e+01 3.304481e+00
      vertex -1.530758e+00 2.759676e+00 3.304490e+00
    endloop
  endfacet
  facet normal 4.714023e-01 -9.952181e-08 8.819183e-01
    outer loop
      vertex -1.530758e+00 2.759676e+00 3.304490e+00
      vertex -2.222301e+00 2.759676e+00 3.674133e+00
      vertex -2.222283e+00 -2.000104e+01 3.674121e+00
    endloop
  endfacet
  facet normal 2.902853e-01 9.875073e-08 9.569402e-01
    outer loop
      vertex -1.530735e+00 -2.000104e+01 3.304481e+00
      vertex -7.803633e-01 -2.000104e+01 3.076857e+00
      vertex -7.803883e-01 2.759676e+00 3.076863e+00
    endloop
  endfacet
  facet normal 2.902907e-01 -9.659504e-08 9.569385e-01
    outer loop
      vertex -7.803883e-01 2.759676e+00 3.076863e+00
      vertex -1.530758e+00 2.759676e+00 3.304490e+00
      vertex -1.530735e+00 -2.000104e+01 3.304481e+00
    endloop
  endfacet
  facet normal 9.801716e-02 -2.098034e-08 9.951847e-01
    outer loop
      vertex -7.803633e-01 -2.000104e+01 3.076857e+00
      vertex 1.549552e-06 -2.000104e+01 2.999998e+00
      vertex 6.421429e-06 2.759676e+00 2.999998e+00
    endloop
  endfacet
  facet normal 9.802005e-02 -1.215305e-07 9.951844e-01
    outer loop
      vertex 6.421429e-06 2.759676e+00 2.999998e+00
      vertex -7.803883e-01 2.759676e+00 3.076863e+00
      vertex -7.803633e-01 -2.000104e+01 3.076857e+00
    endloop
  endfacet
endsolid Default
